<svg width="40" height="40" viewBox="0 0 40 40" fill="none" xmlns="http://www.w3.org/2000/svg">
<path d="M10.8375 11.6253C10.9395 10.6049 10.9905 10.0947 11.0836 9.65971C11.8039 6.29275 14.5977 3.76437 18.0197 3.38265C18.4617 3.33333 18.9745 3.33333 20 3.33333C21.0255 3.33333 21.5383 3.33333 21.9803 3.38265C25.4023 3.76437 28.1961 6.29275 28.9164 9.65971C29.0095 10.0947 29.0605 10.6049 29.1625 11.6253L29.6402 16.4022C29.8008 18.0078 29.8811 18.8106 30.1156 19.5731C30.1868 19.8045 30.2685 20.0325 30.3603 20.2565C30.6631 20.9946 31.1106 21.6659 32.0056 23.0085L34.5937 26.8906C35.5062 28.2593 35.9625 28.9437 35.6798 29.4719C35.3972 30 34.5747 30 32.9296 30H7.07037C5.42534 30 4.60283 30 4.32018 29.4719C4.03753 28.9437 4.49377 28.2593 5.40627 26.8906L7.99436 23.0085C8.88941 21.6659 9.33694 20.9946 9.63967 20.2565C9.73153 20.0325 9.81319 19.8045 9.88437 19.5731C10.1189 18.8106 10.1992 18.0078 10.3598 16.4022L10.8375 11.6253Z" fill="#007AFF"/>
<path d="M16.7802 34.3823C16.9702 34.5595 17.3887 34.7161 17.9708 34.8278C18.5529 34.9395 19.2662 35 20 35C20.7338 35 21.4471 34.9395 22.0292 34.8278C22.6114 34.7161 23.0298 34.5595 23.2198 34.3823" stroke="#007AFF" stroke-width="2" stroke-linecap="round"/>
</svg>
