<?xml version="1.0" encoding="UTF-8"?>
<svg version="1.1" xmlns="http://www.w3.org/2000/svg" width="869" height="813">
<path d="M0 0 C60.72 0 121.44 0 184 0 C196.62808491 44.77230105 196.62808491 44.77230105 201.5390625 62.796875 C202.10533457 64.87014923 202.67176695 66.94337967 203.23834229 69.01657104 C204.42567148 73.36215548 205.61211608 77.7079799 206.79779053 82.05401611 C208.67067708 88.91854844 210.54622819 95.782351 212.42236328 102.64599609 C212.74058233 103.81017752 213.05880138 104.97435894 213.38666344 106.17381859 C214.03273395 108.53737189 214.6788159 110.90092207 215.32490921 113.26446915 C216.29691933 116.82047467 217.26876346 120.37652552 218.24057007 123.93258667 C224.23778427 145.87670085 230.24444018 167.81821426 236.26483154 189.75598145 C237.32540002 193.6208727 238.38499757 197.4860279 239.44366455 201.35144043 C244.81091698 220.94679092 250.20375146 240.52609429 256 260 C256.24674973 259.08959457 256.49349945 258.17918915 256.74772644 257.24119568 C277.67682483 180.02658982 277.67682483 180.02658982 284.88491821 153.85354614 C285.41546424 151.92589624 285.94476277 149.9979025 286.4727478 148.06954956 C287.19036388 145.45027548 287.91275029 142.83236802 288.63671875 140.21484375 C288.83575806 139.48519409 289.03479736 138.75554443 289.23986816 138.00378418 C290.14268723 134.76087647 291.13102988 131.66435244 292.35769653 128.52210999 C294.43519522 123.02530222 295.92251188 117.37531512 297.46166992 111.70898438 C297.79904584 110.47890907 298.13642176 109.24883377 298.48402119 107.98148346 C299.39050058 104.67615948 300.29248204 101.36962443 301.19348907 98.06280518 C302.04193482 94.95163252 302.89449604 91.84158917 303.7467041 88.73144531 C306.23107257 79.65541903 308.70889255 70.57760127 311.1875 61.5 C316.735625 41.205 322.28375 20.91 328 0 C399.61 0 471.22 0 545 0 C553.03837025 17.22507911 553.03837025 17.22507911 556.35546875 24.91015625 C556.73480057 25.78417587 557.11413239 26.6581955 557.50495911 27.55870056 C558.73436406 30.39248467 559.96092518 33.22748991 561.1875 36.0625 C562.06683814 38.09058982 562.94640023 40.11858256 563.82617188 42.14648438 C565.64848544 46.34744606 567.46984808 50.54881805 569.29052734 54.75048828 C573.10756894 63.5572493 576.93640382 72.35887808 580.76501465 81.16061401 C582.83480651 85.91932471 584.90366349 90.67844183 586.97265625 95.4375 C589.95789323 102.30373519 592.94355848 109.16978397 595.92965698 116.03564453 C603.96006081 134.49978373 611.99003895 152.96404868 619.98999023 171.44140625 C624.5428429 181.95342595 629.11074729 192.45888294 633.67959595 202.96395874 C638.66955014 214.43749729 643.65923056 225.9111573 648.64453125 237.38671875 C649.11479736 238.46912842 649.58506348 239.55153809 650.06958008 240.66674805 C657.7663808 258.42254172 665.37640645 276.21161506 673 294 C673.33 196.98 673.66 99.96 674 0 C702.71 0 731.42 0 761 0 C761 164.67 761 329.34 761 499 C711.17 499 661.34 499 610 499 C603.73 484.15 597.46 469.3 591 454 C585.3724533 440.85321087 585.3724533 440.85321087 579.734375 427.7109375 C575.67422951 418.254863 571.64784023 408.78449342 567.625 399.3125 C567.2706488 398.47818451 566.91629761 397.64386902 566.5512085 396.78427124 C564.75289534 392.54983844 562.95497477 388.31523908 561.15722656 384.08056641 C557.9605194 376.55109487 554.7603841 369.02308037 551.56048584 361.4949646 C549.79018144 357.33003694 548.02010219 353.1650136 546.25 349 C545.54166774 347.33333288 544.83333441 345.66666621 544.125 344 C539.87499993 333.99999985 539.87499993 333.99999985 538.81268311 331.50042725 C538.10374287 329.83233496 537.39479918 328.16424414 536.68585205 326.49615479 C534.9242762 322.35131204 533.16275866 318.20644454 531.40136719 314.06152344 C528.10366582 306.30151636 524.80538221 298.54175826 521.50512695 290.78283691 C519.95852035 287.14665925 518.41223196 283.51034631 516.8659668 279.87402344 C516.13386613 278.15260188 515.40161224 276.43124547 514.66918945 274.70996094 C513.64885375 272.31201783 512.62906344 269.91384341 511.609375 267.515625 C511.31734192 266.82970276 511.02530884 266.14378052 510.72442627 265.43707275 C508.11784183 259.30409498 505.56328551 253.15188521 503 247 C502.67 330.49 502.34 413.98 502 500 C499.44571922 501.27714039 497.65356884 501.12586356 494.79295349 501.12698364 C493.68939514 501.12980347 492.58583679 501.13262329 491.44883728 501.13552856 C489.62455956 501.13249222 489.62455956 501.13249222 487.76342773 501.12939453 C486.48702423 501.13114685 485.21062073 501.13289917 483.89553833 501.13470459 C480.38949348 501.13927265 476.88347797 501.13749205 473.37743258 501.1343255 C469.71435385 501.13179922 466.05127768 501.13414014 462.38819885 501.13571167 C456.23706611 501.13753235 450.08594537 501.13512948 443.93481445 501.13037109 C436.81386811 501.12492625 429.69295039 501.12669315 422.57200474 501.1321975 C416.46668897 501.13672864 410.36138185 501.13737925 404.25606495 501.13475883 C400.60579367 501.13319637 396.95553586 501.13300149 393.30526543 501.13629532 C389.23921881 501.1397079 385.17322192 501.1349843 381.10717773 501.12939453 C379.27986366 501.13243088 379.27986366 501.13243088 377.41563416 501.13552856 C376.31489563 501.13270874 375.2141571 501.12988892 374.08006287 501.12698364 C373.11754325 501.12660662 372.15502363 501.12622959 371.16333675 501.12584114 C369 501 369 501 368 500 C367.89765193 498.27472296 367.86600409 496.54522794 367.8613348 494.8169241 C367.85586036 493.68631288 367.85038591 492.55570166 367.84474558 491.3908295 C367.84327842 489.50419789 367.84327842 489.50419789 367.84178162 487.57945251 C367.83721991 486.24215262 367.83222047 484.90485416 367.82681805 483.56755739 C367.81318294 479.87570996 367.80580313 476.18387179 367.79939139 472.49200571 C367.79141093 468.5171966 367.77770511 464.54240689 367.76467896 460.56761169 C367.74288267 453.67534426 367.72474976 446.7830749 367.70907402 439.89079094 C367.68640401 429.92558862 367.65825727 419.96040775 367.62875474 409.99522359 C367.58104356 393.82910057 367.53778897 377.66296881 367.49731445 361.49682617 C367.45797744 345.78881142 367.41655555 330.08080447 367.37231445 314.37280273 C367.36959018 313.40527889 367.36686591 312.43775505 367.36405908 311.4409123 C367.3503799 306.58734375 367.33665957 301.73377532 367.32291877 296.88020694 C367.20889862 256.58682084 367.10210156 216.29341795 367 176 C366.81065384 176.69109863 366.62130768 177.38219727 366.42622375 178.09423828 C364.62053225 184.68286888 362.81205836 191.27073041 361.00063801 197.85778809 C360.06999323 201.2423541 359.1403389 204.62718497 358.21313477 208.01269531 C350.91063231 234.67144336 350.91063231 234.67144336 346.97360802 246.95855331 C345.74045851 250.81077968 344.62209345 254.68686103 343.55004883 258.58642578 C343.34667373 259.31765121 343.14329863 260.04887663 342.93376064 260.8022604 C342.27238471 263.18260155 341.61467103 265.5639367 340.95703125 267.9453125 C340.47537817 269.68185919 339.99349869 271.4183431 339.51141357 273.1547699 C338.213155 277.83355838 336.91814229 282.51323951 335.62376785 287.19310379 C334.24640788 292.17083891 332.86602998 297.14773716 331.48608398 302.12475586 C328.27897513 313.6943296 325.07673308 325.26524766 321.87533569 336.83640289 C320.44259234 342.01455656 319.00935089 347.19257236 317.57617188 352.37060547 C311.82085071 373.16539032 306.06940677 393.96124542 300.32043266 414.7577858 C292.55692524 442.84128626 284.77789511 470.92048035 277 499 C244 499 211 499 177 499 C174.2775 488.955625 171.555 478.91125 168.75 468.5625 C166.98781595 462.06747971 165.22546478 455.57250855 163.4609375 449.078125 C163.23908154 448.26157692 163.01722557 447.44502884 162.7886467 446.60373688 C154.57775255 416.3882723 146.29037605 386.1937343 138 356 C137.76449181 355.14225227 137.52898361 354.28450455 137.28633881 353.40076447 C131.35229493 331.78857744 125.41511887 310.17725141 119.47597504 288.56646538 C112.88215472 264.57338696 106.29081292 240.57962758 99.69921875 216.5859375 C99.41042792 215.53472733 99.12163708 214.48351716 98.82409501 213.40045214 C95.21603747 200.2669752 91.60800537 187.13349127 88 174 C87.99826375 174.68942639 87.9965275 175.37885278 87.99473864 176.08917087 C87.89181885 216.90624827 87.7837299 257.72330911 87.66888306 298.54035478 C87.65511268 303.43600139 87.6413857 308.33164812 87.62768555 313.22729492 C87.62495724 314.20197303 87.62222894 315.17665113 87.61941796 316.18086494 C87.57528463 331.98437342 87.53467114 347.78788911 87.49534739 363.59141021 C87.45495103 379.79467391 87.41079779 395.99792419 87.36312145 412.20116812 C87.33379736 422.20783904 87.3074404 432.2145089 87.28482103 442.22119725 C87.26905199 449.07342658 87.24964984 455.92563946 87.22733159 462.77785056 C87.21454422 466.73736965 87.20341525 470.696876 87.19658089 474.65641022 C87.19029935 478.27529551 87.17949659 481.89413697 87.1649667 485.51299829 C87.15838351 487.45481816 87.15675522 489.39665283 87.15525442 491.33848327 C87.14977998 492.47606128 87.14430554 493.61363929 87.1386652 494.78568935 C87.13600716 495.77562025 87.13334911 496.76555116 87.13061053 497.78547996 C87 500 87 500 86 501 C83.35799939 501.10043271 80.7421141 501.1361685 78.09960938 501.12939453 C76.85821953 501.13202301 76.85821953 501.13202301 75.5917511 501.13470459 C72.84239638 501.13912393 70.09310543 501.13618483 67.34375 501.1328125 C65.44185371 501.13348552 63.53995751 501.13445552 61.63806152 501.13571167 C57.64655745 501.13718875 53.65507571 501.13503375 49.66357422 501.13037109 C44.53509493 501.1246738 39.40666798 501.12795275 34.27819061 501.13394356 C30.34925946 501.13754889 26.42034082 501.13641072 22.4914093 501.13381577 C20.59987888 501.13314642 18.70834735 501.13397519 16.81681824 501.13629532 C14.17797823 501.13882138 11.53922419 501.13498191 8.90039062 501.12939453 C7.71592094 501.13243088 7.71592094 501.13243088 6.50752258 501.13552856 C1.11426251 501.11426251 1.11426251 501.11426251 0 500 C-0.09892061 497.34757889 -0.13176434 494.72118327 -0.12304783 492.06826687 C-0.12420167 491.22292618 -0.12535552 490.3775855 -0.12654433 489.50662842 C-0.12921864 486.63700377 -0.12468218 483.76743377 -0.12025452 480.89781189 C-0.12069005 478.83454852 -0.12156463 476.7712852 -0.12284368 474.70802218 C-0.12509211 469.00948763 -0.12106264 463.31097169 -0.11606562 457.61243951 C-0.11176626 451.47811212 -0.11320718 445.34378587 -0.1139679 439.2094574 C-0.11449346 428.57173821 -0.11137802 417.93402575 -0.10573006 407.29630852 C-0.09981955 396.1355785 -0.09596543 384.97485091 -0.09487724 373.81411934 C-0.0948085 373.12101469 -0.09473976 372.42791004 -0.09466894 371.71380222 C-0.09433062 368.19408872 -0.09402923 364.67437522 -0.09374207 361.15466172 C-0.09163985 336.20361071 -0.08489747 311.25256289 -0.07543945 286.30151367 C-0.06625986 262.0570477 -0.05917388 237.8125826 -0.05493164 213.56811523 C-0.05480011 212.8212188 -0.05466859 212.07432237 -0.05453308 211.30479272 C-0.05321459 203.80437238 -0.05193877 196.30395204 -0.05069422 188.80353169 C-0.04815778 173.52336373 -0.04533653 158.24319583 -0.04234314 142.96302795 C-0.04220585 142.26042078 -0.04206856 141.55781361 -0.04192711 140.83391531 C-0.03272143 93.88927525 -0.01623647 46.94463828 0 0 Z " fill="#8582EE" transform="translate(49,266)"/>
<path d="M0 0 C3 1 3 1 4.28344727 3.01513672 C4.70682373 3.89443848 5.1302002 4.77374023 5.56640625 5.6796875 C6.28715332 7.15308594 6.28715332 7.15308594 7.02246094 8.65625 C7.53067383 9.7184375 8.03888672 10.780625 8.5625 11.875 C9.64022873 14.08155949 10.71967763 16.28727958 11.80078125 18.4921875 C12.60829834 20.14492676 12.60829834 20.14492676 13.43212891 21.83105469 C15.62527155 26.2637846 17.9246933 30.635536 20.25 35 C26.47496146 46.73927158 32.37447975 58.60332806 38.00048828 70.640625 C42.73021175 80.73316633 47.72290619 90.68275028 53 100.5 C58.61686819 110.94934952 63.88213386 121.55162525 68.875 132.3125 C72.13088073 139.31926515 75.65660307 146.15637915 79.28417969 152.97705078 C82.98770965 159.94429873 86.53218726 166.98158898 90.03222656 174.05273438 C91.01157415 176.02328846 92.00036116 177.98882502 92.9921875 179.953125 C96.85526395 187.61353139 100.58707836 195.31980489 104.19116211 203.10571289 C106.32021536 207.66995427 108.61733236 212.0571912 111.28515625 216.3359375 C112 218 112 218 111 221 C38.4 221 -34.2 221 -109 221 C-109.33 220.34 -109.66 219.68 -110 219 C-109.30764294 217.12030125 -109.30764294 217.12030125 -108.13749695 214.7872467 C-107.69895889 213.90322678 -107.26042084 213.01920685 -106.80859375 212.10839844 C-106.06935669 210.6491394 -106.06935669 210.6491394 -105.31518555 209.16040039 C-104.80470169 208.13724228 -104.29421783 207.11408417 -103.76826477 206.05992126 C-102.06543069 202.65192808 -100.35118302 199.24981158 -98.63671875 195.84765625 C-97.44790992 193.47496346 -96.25969521 191.10198195 -95.07221985 188.72862244 C-92.57125796 183.73316242 -90.06439143 178.74070337 -87.5534668 173.75024414 C-84.36043643 167.40405604 -81.17626427 161.05347094 -77.99530315 154.70122623 C-74.94136081 148.6026551 -71.88291565 142.50634378 -68.82421875 136.41015625 C-68.25141363 135.26794176 -67.67860851 134.12572727 -67.08844566 132.94890022 C-60.86650196 120.54936499 -54.57306627 108.19702628 -48.07923889 95.93757629 C-45.70571316 91.45442438 -43.40324742 86.93849153 -41.1484375 82.39453125 C-40.75983551 81.61591232 -40.37123352 80.8372934 -39.97085571 80.03507996 C-38.77028629 77.62851954 -37.57253746 75.2205703 -36.375 72.8125 C-35.57311161 71.20367886 -34.77102835 69.59495483 -33.96875 67.98632812 C-32.39708371 64.83445507 -30.82642167 61.68208496 -29.2565918 58.52929688 C-26.14363158 52.27886166 -23.01949982 46.03401937 -19.8951416 39.78927612 C-18.54290139 37.08631703 -17.19138888 34.38299421 -15.83984375 31.6796875 C-10.55989583 21.11979167 -5.27994792 10.55989583 0 0 Z " fill="#8582EE" transform="translate(487,20)"/>
</svg>
